# xmcd
#
# Track frame offsets:
#	150
#	11910
#	25242
#	36560
#	50370
#	63565
#	75730
#	89592
#	99810
#	112235
#	125795
#	137380
#	150110
#	162620
#	174585
#	189510
#	200430
#
# Disc length: 2862 seconds
#
# Revision: 0
# Processed by: cddbd v1.4PL0 Copyright (c) Steve Scherf et al.
# Submitted via: EasyCDDAExtractor 4.6.9.1
#
DISCID=e80b2c11
DTITLE=Soul Man - The Best Of American Black Music
DYEAR=1986
DGENRE=Soul
TTITLE0=Sam and Dave: Soul Man
TTITLE1=Eddy Floyd: Knock On Wood
TTITLE2=Solomon Burke: If You Need Me
TTITLE3=Martha Reeves: No Where To Run To
TTITLE4=Percy Sledge: When A Man Loves A Woman
TTITLE5=Martha Reeves: Heat Wave (Love Is Like A)
TTITLE6=Dave'Baby'Cortez: Green Onions
TTITLE7=Rufus Thomas: Walking The Dog
TTITLE8=Fontella Bass: Rescue Me
TTITLE9=Percy Sledge: Take Time To Know Her
TTITLE10=Martha Reeves: Dancin In The Street
TTITLE11=Lloyd Price: Stagger Lee
TTITLE12=Archie Bell and The Drells: Tighten Up
TTITLE13=Sam and Dave: Hold on i'm Coming
TTITLE14=Percy Sledge: Warm And Tender
TTITLE15=Orioles: Baby Please Don't Go
TTITLE16=Rufus Thomas: Do The Funcky Chicken
EXTD=
EXTT0=
EXTT1=
EXTT2=
EXTT3=
EXTT4=
EXTT5=
EXTT6=
EXTT7=
EXTT8=
EXTT9=
EXTT10=
EXTT11=
EXTT12=
EXTT13=
EXTT14=
EXTT15=
EXTT16=
PLAYORDER=
